<?xml version="1.0" encoding="iso-8859-1"?>
<!-- Generator: Adobe Illustrator 19.0.0, SVG Export Plug-In . SVG Version: 6.00 Build 0)  -->
<svg version="1.1" id="Capa_1" xmlns="http://www.w3.org/2000/svg" xmlns:xlink="http://www.w3.org/1999/xlink" x="0px" y="0px"
	 viewBox="0 0 480 480" style="enable-background:new 0 0 480 480;" xml:space="preserve">
<path style="fill:#FFD884;" d="M372.288,128.287c-15.623,15.623-40.953,15.623-56.576,0c-15.623-15.623-15.623-40.953,0-56.576
	L280,35.999l-208,208h272l72-72L372.288,128.287z"/>
<path style="fill:#FFBF41;" d="M72,243.999h272l72-72l-296,24L72,243.999z"/>
<path style="fill:#EC7422;" d="M128,235.999l120-120l88,88l-32,32H128z"/>
<path style="fill:#F6F6E7;" d="M152,235.999l95.464-96L312,204.535l-30.936,31.464L152,235.999z"/>
<path style="fill:#FFD884;" d="M432,339.999c0-22.091,17.909-40,40-40v-64H8v64c22.091,0,40,17.909,40,40s-17.909,40-40,40v64h464
	v-64C449.909,379.999,432,362.091,432,339.999z"/>
<path style="fill:#FFBF41;" d="M8,443.999h464v-64c-22.091,0-40-17.909-40-40s17.909-40,40-40v-64L8,443.999z"/>
<g>
	<path style="fill:#FFFFFF;" d="M384,259.999h16v32h-16V259.999z"/>
	<path style="fill:#FFFFFF;" d="M384,307.999h16v32h-16V307.999z"/>
	<path style="fill:#FFFFFF;" d="M384,355.999h16v32h-16V355.999z"/>
	<path style="fill:#FFFFFF;" d="M384,403.999h16v32h-16V403.999z"/>
	<path style="fill:#FFFFFF;" d="M80,235.999h16v32H80V235.999z"/>
	<path style="fill:#FFFFFF;" d="M80,283.999h16v32H80V283.999z"/>
	<path style="fill:#FFFFFF;" d="M80,331.999h16v32H80V331.999z"/>
	<path style="fill:#FFFFFF;" d="M80,379.999h16v32H80V379.999z"/>
	<path style="fill:#FFFFFF;" d="M80,427.999h16v16H80V427.999z"/>
</g>
<path style="fill:#EC7422;" d="M352,387.999v-96c-13.255,0-24-10.745-24-24H152c0,13.255-10.745,24-24,24v96
	c13.255,0,24,10.745,24,24h176C328,398.744,338.745,387.999,352,387.999z"/>
<path style="fill:#F6F6E7;" d="M336,377.335v-74.672c-10.825,0.503-20.02-7.841-20.568-18.664H164.568
	c-0.548,10.823-9.743,19.167-20.568,18.664v74.672c10.825-0.503,20.02,7.841,20.568,18.664h150.864
	C315.98,385.176,325.175,376.832,336,377.335z"/>
<path d="M472,307.999c4.418,0,8-3.582,8-8v-64c0-4.418-3.582-8-8-8H371.336l50.344-50.344c3.123-3.124,3.123-8.188,0-11.312
	l-43.72-43.712c-3.124-3.123-8.188-3.123-11.312,0c-12.499,12.497-32.763,12.495-45.26-0.004s-12.495-32.763,0.004-45.26
	c3.123-3.124,3.123-8.188,0-11.312L285.68,30.343c-3.124-3.123-8.188-3.123-11.312,0L76.712,227.999H8c-4.418,0-8,3.582-8,8v64
	c0,4.418,3.582,8,8,8c17.673,0,32,14.327,32,32s-14.327,32-32,32c-4.418,0-8,3.582-8,8v64c0,4.418,3.582,8,8,8h464
	c4.418,0,8-3.582,8-8v-64c0-4.418-3.582-8-8-8c-17.673,0-32-14.327-32-32S454.327,307.999,472,307.999L472,307.999z M280,47.311
	l24.864,24.864c-15.405,21.575-10.403,51.552,11.172,66.957c16.685,11.913,39.094,11.915,55.78,0.003l32.896,32.864l-56,56h-25.376
	l18.344-18.344c3.123-3.124,3.123-8.188,0-11.312l-88-88c-3.124-3.123-8.188-3.123-11.312,0L124.712,227.999H99.336L280,47.311z
	 M147.336,227.999L248,127.311l76.712,76.688l-24,24H147.336z M464,387.335v48.664h-64v-32h-16v32H96v-8H80v8H16v-48.664
	c26.143-4.394,43.774-29.149,39.38-55.292c-3.392-20.178-19.202-35.988-39.38-39.38v-48.664h64v24h16v-24h368v48.664
	c-26.143,4.394-43.774,29.149-39.38,55.292C428.012,368.134,443.822,383.944,464,387.335z"/>
<path d="M384.024,259.999h16v32h-16V259.999z"/>
<path d="M384.024,307.999h16v32h-16V307.999z"/>
<path d="M384.024,355.999h16v32h-16V355.999z"/>
<path d="M80.024,283.999h16v32h-16V283.999z"/>
<path d="M80.024,331.999h16v32h-16V331.999z"/>
<path d="M80.024,379.999h16v32h-16V379.999z"/>
<path d="M352,283.999c-8.837,0-16-7.163-16-16c0-4.418-3.582-8-8-8H152c-4.418,0-8,3.582-8,8c0,8.837-7.163,16-16,16
	c-4.418,0-8,3.582-8,8v96c0,4.418,3.582,8,8,8c8.837,0,16,7.163,16,16c0,4.418,3.582,8,8,8h176c4.418,0,8-3.582,8-8
	c0-8.837,7.163-16,16-16c4.418,0,8-3.582,8-8v-96C360,287.581,356.418,283.999,352,283.999z M344,381.007
	c-11.254,2.941-20.038,11.735-22.968,22.992H159.008c-2.938-11.266-11.74-20.062-23.008-22.992v-82.016
	c11.268-2.93,20.07-11.726,23.008-22.992h162.024c2.93,11.257,11.714,20.051,22.968,22.992V381.007z"/>
<g>
</g>
<g>
</g>
<g>
</g>
<g>
</g>
<g>
</g>
<g>
</g>
<g>
</g>
<g>
</g>
<g>
</g>
<g>
</g>
<g>
</g>
<g>
</g>
<g>
</g>
<g>
</g>
<g>
</g>
</svg>
